<svg width="239" height="49" viewBox="0 0 239 49" fill="none" xmlns="http://www.w3.org/2000/svg">
<path d="M1.16406 12L3.16406 4.5H21.6639V39.5002H18.1639C21.3639 15.1002 8.16402 11.0001 1.16406 12Z" fill="black"/>
<path d="M39.6639 12L37.6639 4.5H19.1641V39.5002H22.6641C19.4641 15.1002 32.664 11.0001 39.6639 12Z" fill="black"/>
<path d="M1.16406 12L3.16406 4.5H21.6639V39.5002H18.1639C21.3639 15.1002 8.16402 11.0001 1.16406 12Z" stroke="black"/>
<path d="M39.6639 12L37.6639 4.5H19.1641V39.5002H22.6641C19.4641 15.1002 32.664 11.0001 39.6639 12Z" stroke="black"/>
<path d="M52.1445 24.7439V39H44.1864V5.67062H51.8841V18.5923H52.1607C52.7249 17.0517 53.6471 15.8474 54.9273 14.9794C56.2184 14.1115 57.797 13.6775 59.6631 13.6775C61.4207 13.6775 62.9505 14.0681 64.2524 14.8492C65.5543 15.6195 66.5633 16.7099 67.2794 18.1203C68.0063 19.5307 68.3643 21.1798 68.3535 23.0676V39H60.3954V24.63C60.4063 23.2412 60.0591 22.1563 59.3539 21.3751C58.6487 20.594 57.656 20.2034 56.3757 20.2034C55.5403 20.2034 54.8026 20.3878 54.1625 20.7567C53.5332 21.1148 53.0395 21.6301 52.6815 22.3028C52.3343 22.9754 52.1553 23.7891 52.1445 24.7439ZM82.8344 39.4719C80.2088 39.4719 77.9522 38.9349 76.0644 37.8608C74.1874 36.7759 72.739 35.2678 71.7192 33.3366C70.7102 31.3946 70.2057 29.1433 70.2057 26.5829C70.2057 24.0115 70.7102 21.7603 71.7192 19.8291C72.739 17.8871 74.1874 16.379 76.0644 15.3049C77.9522 14.22 80.2088 13.6775 82.8344 13.6775C85.46 13.6775 87.7112 14.22 89.5882 15.3049C91.476 16.379 92.9244 17.8871 93.9333 19.8291C94.9532 21.7603 95.4631 24.0115 95.4631 26.5829C95.4631 29.1433 94.9532 31.3946 93.9333 33.3366C92.9244 35.2678 91.476 36.7759 89.5882 37.8608C87.7112 38.9349 85.46 39.4719 82.8344 39.4719ZM82.8832 33.4668C83.838 33.4668 84.6463 33.1739 85.3081 32.588C85.9699 32.0021 86.4744 31.1884 86.8216 30.1469C87.1796 29.1053 87.3586 27.9011 87.3586 26.534C87.3586 25.1453 87.1796 23.9302 86.8216 22.8886C86.4744 21.8471 85.9699 21.0334 85.3081 20.4475C84.6463 19.8616 83.838 19.5687 82.8832 19.5687C81.8959 19.5687 81.0605 19.8616 80.377 20.4475C79.7043 21.0334 79.189 21.8471 78.831 22.8886C78.4838 23.9302 78.3102 25.1453 78.3102 26.534C78.3102 27.9011 78.4838 29.1053 78.831 30.1469C79.189 31.1884 79.7043 32.0021 80.377 32.588C81.0605 33.1739 81.8959 33.4668 82.8832 33.4668ZM105.343 24.7439V39H97.3845V14.003H104.952V18.5923H105.229C105.782 17.0625 106.726 15.8636 108.06 14.9957C109.395 14.1169 110.984 13.6775 112.829 13.6775C114.586 13.6775 116.111 14.0735 117.402 14.8655C118.704 15.6467 119.713 16.7424 120.429 18.1529C121.156 19.5524 121.514 21.1907 121.503 23.0676V39H113.545V24.63C113.556 23.2412 113.203 22.1563 112.487 21.3751C111.782 20.594 110.8 20.2034 109.541 20.2034C108.706 20.2034 107.968 20.3878 107.328 20.7567C106.699 21.1148 106.21 21.6301 105.863 22.3028C105.527 22.9754 105.353 23.7891 105.343 24.7439ZM135.927 48.8947C133.551 48.8947 131.516 48.5638 129.824 47.9019C128.131 47.2401 126.802 46.3342 125.837 45.1842C124.871 44.0341 124.291 42.7322 124.095 41.2784L131.63 40.8552C131.771 41.3652 132.032 41.81 132.411 42.1897C132.802 42.5695 133.307 42.8624 133.925 43.0685C134.554 43.2747 135.292 43.3777 136.138 43.3777C137.473 43.3777 138.574 43.0523 139.442 42.4013C140.321 41.7612 140.76 40.6383 140.76 39.0325V34.6385H140.483C140.169 35.4088 139.691 36.0978 139.051 36.7054C138.411 37.3129 137.614 37.7903 136.659 38.1375C135.715 38.4847 134.63 38.6582 133.404 38.6582C131.581 38.6582 129.911 38.2351 128.392 37.3889C126.884 36.5318 125.674 35.2081 124.763 33.418C123.862 31.617 123.412 29.3006 123.412 26.4689C123.412 23.5504 123.878 21.1473 124.811 19.2595C125.745 17.3609 126.965 15.9559 128.473 15.0445C129.992 14.1332 131.625 13.6775 133.372 13.6775C134.684 13.6775 135.807 13.9053 136.74 14.361C137.684 14.8058 138.46 15.3808 139.068 16.0861C139.675 16.7913 140.136 17.5236 140.451 18.2831H140.679V14.003H148.604V39.0976C148.604 41.2133 148.073 42.998 147.009 44.4518C145.946 45.9056 144.46 47.0069 142.55 47.7555C140.641 48.5149 138.433 48.8947 135.927 48.8947ZM136.171 32.8647C137.136 32.8647 137.961 32.6097 138.644 32.0998C139.328 31.5899 139.854 30.8575 140.223 29.9028C140.592 28.948 140.776 27.8034 140.776 26.4689C140.776 25.1128 140.592 23.9464 140.223 22.97C139.865 21.9827 139.339 21.2232 138.644 20.6916C137.961 20.16 137.136 19.8942 136.171 19.8942C135.183 19.8942 134.348 20.1654 133.665 20.7079C132.981 21.2504 132.46 22.0153 132.102 23.0025C131.755 23.979 131.581 25.1345 131.581 26.4689C131.581 27.8034 131.761 28.948 132.119 29.9028C132.477 30.8575 132.992 31.5899 133.665 32.0998C134.348 32.6097 135.183 32.8647 136.171 32.8647ZM159.48 5.67062V39H151.522V5.67062H159.48ZM169.437 39.4231C167.842 39.4231 166.426 39.1573 165.19 38.6257C163.964 38.0832 162.993 37.2695 162.277 36.1846C161.571 35.0888 161.219 33.7163 161.219 32.0672C161.219 30.6785 161.463 29.5068 161.951 28.552C162.439 27.5973 163.112 26.8215 163.969 26.2248C164.826 25.6281 165.813 25.1779 166.931 24.8741C168.048 24.5594 169.242 24.3479 170.511 24.2394C171.933 24.1092 173.077 23.9736 173.945 23.8325C174.813 23.6806 175.442 23.4691 175.833 23.1978C176.234 22.9158 176.435 22.5198 176.435 22.0098V21.9285C176.435 21.0931 176.148 20.4475 175.572 19.9918C174.997 19.5362 174.222 19.3083 173.245 19.3083C172.193 19.3083 171.347 19.5362 170.707 19.9918C170.066 20.4475 169.66 21.0768 169.486 21.8796L162.146 21.6193C162.363 20.1003 162.922 18.7442 163.823 17.5507C164.734 16.3464 165.982 15.4025 167.566 14.719C169.16 14.0247 171.075 13.6775 173.31 13.6775C174.905 13.6775 176.375 13.8673 177.721 14.2471C179.066 14.616 180.238 15.1584 181.236 15.8745C182.234 16.5797 183.004 17.4477 183.547 18.4783C184.1 19.509 184.377 20.6862 184.377 22.0098V39H176.891V35.5173H176.695C176.251 36.3636 175.681 37.0797 174.987 37.6655C174.303 38.2514 173.495 38.6908 172.562 38.9837C171.64 39.2767 170.598 39.4231 169.437 39.4231ZM171.895 34.2154C172.752 34.2154 173.522 34.0418 174.205 33.6946C174.9 33.3475 175.453 32.8701 175.865 32.2625C176.278 31.6441 176.484 30.928 176.484 30.1143V27.7383C176.256 27.8577 175.979 27.9662 175.654 28.0638C175.339 28.1614 174.992 28.2537 174.612 28.3405C174.233 28.4273 173.842 28.5032 173.441 28.5683C173.039 28.6334 172.654 28.6931 172.285 28.7473C171.537 28.8667 170.896 29.0511 170.365 29.3006C169.844 29.5502 169.443 29.8756 169.16 30.2771C168.889 30.6677 168.754 31.1342 168.754 31.6767C168.754 32.5012 169.047 33.1305 169.632 33.5644C170.229 33.9984 170.983 34.2154 171.895 34.2154ZM195.045 24.7439V39H187.087V14.003H194.655V18.5923H194.932C195.485 17.0625 196.429 15.8636 197.763 14.9957C199.098 14.1169 200.687 13.6775 202.532 13.6775C204.289 13.6775 205.814 14.0735 207.105 14.8655C208.407 15.6467 209.416 16.7424 210.132 18.1529C210.858 19.5524 211.217 21.1907 211.206 23.0676V39H203.248V24.63C203.258 23.2412 202.906 22.1563 202.19 21.3751C201.485 20.594 200.503 20.2034 199.244 20.2034C198.409 20.2034 197.671 20.3878 197.031 20.7567C196.402 21.1148 195.913 21.6301 195.566 22.3028C195.23 22.9754 195.056 23.7891 195.045 24.7439ZM221.024 39.4231C219.429 39.4231 218.013 39.1573 216.777 38.6257C215.551 38.0832 214.58 37.2695 213.863 36.1846C213.158 35.0888 212.806 33.7163 212.806 32.0672C212.806 30.6785 213.05 29.5068 213.538 28.552C214.026 27.5973 214.699 26.8215 215.556 26.2248C216.413 25.6281 217.4 25.1779 218.518 24.8741C219.635 24.5594 220.829 24.3479 222.098 24.2394C223.519 24.1092 224.664 23.9736 225.532 23.8325C226.4 23.6806 227.029 23.4691 227.42 23.1978C227.821 22.9158 228.022 22.5198 228.022 22.0098V21.9285C228.022 21.0931 227.734 20.4475 227.159 19.9918C226.584 19.5362 225.809 19.3083 224.832 19.3083C223.78 19.3083 222.934 19.5362 222.293 19.9918C221.653 20.4475 221.246 21.0768 221.073 21.8796L213.733 21.6193C213.95 20.1003 214.509 18.7442 215.41 17.5507C216.321 16.3464 217.569 15.4025 219.153 14.719C220.747 14.0247 222.662 13.6775 224.897 13.6775C226.492 13.6775 227.962 13.8673 229.308 14.2471C230.653 14.616 231.825 15.1584 232.823 15.8745C233.821 16.5797 234.591 17.4477 235.134 18.4783C235.687 19.509 235.964 20.6862 235.964 22.0098V39H228.478V35.5173H228.282C227.837 36.3636 227.268 37.0797 226.574 37.6655C225.89 38.2514 225.082 38.6908 224.149 38.9837C223.227 39.2767 222.185 39.4231 221.024 39.4231ZM223.481 34.2154C224.339 34.2154 225.109 34.0418 225.792 33.6946C226.487 33.3475 227.04 32.8701 227.452 32.2625C227.865 31.6441 228.071 30.928 228.071 30.1143V27.7383C227.843 27.8577 227.566 27.9662 227.241 28.0638C226.926 28.1614 226.579 28.2537 226.199 28.3405C225.82 28.4273 225.429 28.5032 225.028 28.5683C224.626 28.6334 224.241 28.6931 223.872 28.7473C223.123 28.8667 222.483 29.0511 221.952 29.3006C221.431 29.5502 221.029 29.8756 220.747 30.2771C220.476 30.6677 220.341 31.1342 220.341 31.6767C220.341 32.5012 220.633 33.1305 221.219 33.5644C221.816 33.9984 222.57 34.2154 223.481 34.2154Z" fill="black"/>
</svg>
